<?xml version="1.0" encoding="utf-8"?>
<!-- Generator: Adobe Illustrator 16.0.0, SVG Export Plug-In . SVG Version: 6.00 Build 0)  -->
<!DOCTYPE svg PUBLIC "-//W3C//DTD SVG 1.1//EN" "http://www.w3.org/Graphics/SVG/1.1/DTD/svg11.dtd">
<svg version="1.1" id="Layer_1" xmlns="http://www.w3.org/2000/svg" xmlns:xlink="http://www.w3.org/1999/xlink" x="0px" y="0px"
	 width="489px" height="376px" viewBox="0 0 489 376" enable-background="new 0 0 489 376" xml:space="preserve">
<circle fill="none" stroke="#FFFFFF" stroke-width="80" stroke-miterlimit="10" cx="242.73" cy="186.969" r="133.459"/>
<circle fill="none" stroke="#BB0A21" stroke-width="60" stroke-miterlimit="10" cx="242.73" cy="186.969" r="133.459"/>
<g>
	<rect x="22" y="149" fill="#2F74AF" width="440" height="91"/>
	<path fill="#FFFFFF" d="M459,152v85H26v-85H459 M466,145h-7H26h-7v7v84.526V244h7h433h7v-7.474V152V145L466,145z"/>
</g>
<rect x="118.791" y="163.789" fill="none" width="286.721" height="67.219"/>
<text transform="matrix(1 0 0 1 118.7905 218.9404)" fill="#FFFFFF" font-family="'Andada-Bold'" font-size="72">London</text>
<polygon fill="none" points="492.999,330.642 198.268,395.48 168.956,262.243 463.688,197.398 "/>
<text transform="matrix(0.9766 -0.2149 0.2149 0.9766 221.146 295.1064)"><tspan x="0" y="0" font-family="'PermanentMarker-Regular'" font-size="72">like a </tspan><tspan x="6.539" y="48" font-family="'PermanentMarker-Regular'" font-size="72">local</tspan></text>
</svg>
