<?xml version="1.0" encoding="utf-8"?>
<!-- Generator: Adobe Illustrator 16.0.0, SVG Export Plug-In . SVG Version: 6.00 Build 0)  -->
<!DOCTYPE svg PUBLIC "-//W3C//DTD SVG 1.1//EN" "http://www.w3.org/Graphics/SVG/1.1/DTD/svg11.dtd">
<svg version="1.1" id="Layer_1" xmlns="http://www.w3.org/2000/svg" xmlns:xlink="http://www.w3.org/1999/xlink" x="0px" y="0px"
	 width="489px" height="376px" viewBox="0 0 489 376" enable-background="new 0 0 489 376" xml:space="preserve">
<circle fill="none" stroke="#FFFFFF" stroke-width="80" stroke-miterlimit="10" cx="242.73" cy="186.969" r="133.459"/>
<circle fill="none" stroke="#BB0A21" stroke-width="60" stroke-miterlimit="10" cx="242.73" cy="186.969" r="133.459"/>
<g>
	<rect x="22" y="149" fill="#2F74AF" width="440" height="91"/>
	<path fill="#FFFFFF" d="M459,152v85H26v-85H459 M466,145h-7H26h-7v7v84.526V244h7h433h7v-7.474V152V145L466,145z"/>
</g>
<g>
	<path fill="#FFFFFF" d="M143.993,173.648l-4.752,0.432c-0.216,1.08-0.648,4.393-0.648,5.833v25.13c0,3.024,0.36,6.121,0.576,7.633
		h6.769c2.088,0,4.176-0.288,5.544-0.576c0.648-1.367,1.296-2.664,1.368-3.096c0.288-1.08,0.72-2.953,0.864-4.104l5.041,0.36
		l-1.08,12.672l-1.368,1.297c0,0-6.769-0.288-8.208-0.288h-18.506c-3.384,0-7.201,0.36-7.201,0.36l-0.36-5.041l4.752-0.863
		c0.072-0.721,0.648-4.753,0.648-6.193v-25.13c0-3.6-0.504-6.841-0.648-7.993l-4.68-0.864l0.36-5.4c0,0,3.816,0.36,7.201,0.36
		c8.137,0,13.969-0.36,13.969-0.36L143.993,173.648z"/>
	<path fill="#FFFFFF" d="M178.58,220.021c-11.449,0-17.785-6.696-17.785-18.649c0-12.025,6.336-18.65,17.785-18.65
		c11.449,0,17.786,6.625,17.786,18.65C196.366,213.324,190.029,220.021,178.58,220.021z M178.58,188.842
		c-4.464,0-6.336,3.672-6.336,12.529c0,8.856,1.872,12.529,6.336,12.529c4.465,0,6.337-3.673,6.337-12.529
		C184.917,192.514,183.045,188.842,178.58,188.842z"/>
	<path fill="#FFFFFF" d="M197.457,182.721c0,0,5.4,0.648,8.425,0.648l3.457-0.144l1.512,1.368l0.72,5.185
		c2.88-4.249,6.48-7.057,11.953-7.057c7.849,0,12.025,4.464,12.025,12.818v9.504c0,3.601,0.648,8.354,0.648,8.354l4.681,0.432
		l-0.36,5.473c0,0-4.752-0.36-12.889-0.36c-3.384,0-6.193,0.36-6.193,0.36l-0.36-5.041l4.032-0.863
		c0.144-2.593,0.36-5.473,0.36-6.193v-10.656c0-3.745-1.584-6.625-5.329-6.625c-3.601,0-7.129,3.457-7.129,9.938v5.184
		c0,3.601,0.648,8.354,0.648,8.354l4.68,0.432l-0.36,5.473c0,0-4.752-0.36-12.889-0.36c-3.384,0-7.201,0.36-7.201,0.36l-0.36-5.041
		l4.752-0.863c0,0,0.648-4.753,0.648-6.193v-11.664c0-1.441-0.72-6.265-0.72-6.265l-5.4-1.224L197.457,182.721z"/>
	<path fill="#FFFFFF" d="M280.237,219.301c0,0-3.528-0.36-13.249-0.36l-0.576-5.4c-3.024,4.32-6.336,6.12-11.018,6.12
		c-8.784,0-13.681-6.48-13.681-17.93c0-12.097,6.553-19.009,18.073-19.009c1.729,0,3.744,0.144,5.833,0.36v-6.409
		c0-1.44-0.72-6.265-0.72-6.265l-5.4-1.224l0.647-5.4c0,0,5.4,0.72,8.425,0.72l6.336-0.144l1.513,1.368c0,0-0.72,9.504-0.72,13.105
		v26.21c0,3.601,0.648,8.354,0.648,8.354l4.32,0.432L280.237,219.301z M265.62,190.498c-2.017-0.648-3.673-0.936-4.968-0.936
		c-5.258,0-7.489,3.312-7.489,11.233c0,7.345,1.944,10.729,6.12,10.729c3.816,0,5.977-3.168,6.337-9.36V190.498z"/>
	<path fill="#FFFFFF" d="M299.531,220.021c-11.449,0-17.785-6.696-17.785-18.649c0-12.025,6.336-18.65,17.785-18.65
		s17.785,6.625,17.785,18.65C317.316,213.324,310.98,220.021,299.531,220.021z M299.531,188.842c-4.465,0-6.336,3.672-6.336,12.529
		c0,8.856,1.871,12.529,6.336,12.529s6.337-3.673,6.337-12.529C305.868,192.514,303.996,188.842,299.531,188.842z"/>
	<path fill="#FFFFFF" d="M318.408,182.721c0,0,5.4,0.648,8.424,0.648l3.457-0.144l1.512,1.368l0.721,5.185
		c2.88-4.249,6.48-7.057,11.953-7.057c7.848,0,12.024,4.464,12.024,12.818v9.504c0,3.601,0.647,8.354,0.647,8.354l4.682,0.432
		l-0.36,5.473c0,0-4.753-0.36-12.89-0.36c-3.384,0-6.192,0.36-6.192,0.36l-0.36-5.041l4.033-0.863
		c0.144-2.593,0.359-5.473,0.359-6.193v-10.656c0-3.745-1.584-6.625-5.328-6.625c-3.601,0-7.129,3.457-7.129,9.938v5.184
		c0,3.601,0.648,8.354,0.648,8.354l4.68,0.432l-0.359,5.473c0,0-4.752-0.36-12.889-0.36c-3.385,0-7.201,0.36-7.201,0.36
		l-0.359-5.041l4.752-0.863c0,0,0.648-4.753,0.648-6.193v-11.664c0-1.441-0.721-6.265-0.721-6.265l-5.4-1.224L318.408,182.721z"/>
</g>
<g>
	<path d="M240.341,290.047c-1.191,0.693-2.497,1.412-3.917,2.157s-2.886,1.282-4.396,1.615c-2.29,0.504-4.224,0.328-5.803-0.523
		c-0.34-0.453-0.622-0.751-0.844-0.894c-0.178-0.152-0.348-0.32-0.506-0.501c-0.161-0.181-0.305-0.448-0.43-0.806
		c-0.69-0.52-1.29-1.167-1.796-1.945c-0.507-0.775-0.916-1.598-1.227-2.465c-0.312-0.867-0.532-1.766-0.665-2.697
		s-0.177-1.834-0.128-2.708c0.051-0.202,0.067-0.399,0.051-0.587c-0.018-0.188-0.028-0.4-0.033-0.641
		c0.021-0.771,0.061-1.525,0.116-2.258c0.055-0.732,0.209-1.389,0.465-1.975c-0.273-0.371-0.374-0.828-0.302-1.373
		c0.071-0.543,0.177-1.047,0.315-1.51c0.258-1.881,0.471-3.475,0.64-4.783c0.168-1.309,0.35-2.608,0.546-3.9
		c0.324-2.23,0.609-4.429,0.853-6.596c0.244-2.164,0.384-4.475,0.419-6.931c0.315-0.31,0.556-0.528,0.719-0.662
		c0.255-0.151,0.468-0.271,0.641-0.357c0.915,0.231,1.965,0.421,3.149,0.567c1.184,0.148,2.142,0.141,2.875-0.021
		c0.416,0.149,0.683,0.271,0.8,0.364c0.116,0.095,0.23,0.178,0.343,0.248c0.634,0.484,1.202,0.996,1.705,1.533
		c0.502,0.537,0.796,1.326,0.88,2.361c-0.185,0.473-0.345,0.725-0.482,0.755c-0.028,0.968-0.098,1.798-0.207,2.493
		c-0.111,0.697-0.232,1.396-0.367,2.097c-0.17,0.757-0.315,1.509-0.439,2.257c-0.123,0.747-0.167,1.645-0.128,2.691
		c-0.133,0.27-0.213,0.504-0.241,0.701s-0.063,0.422-0.104,0.671c-0.042,0.251-0.092,0.513-0.15,0.789
		c-0.06,0.277-0.183,0.533-0.371,0.766c0.124,1.222,0.118,2.23-0.019,3.028c-0.137,0.797-0.285,1.6-0.443,2.4
		c-0.257,1.449-0.458,2.885-0.6,4.309c-0.145,1.424-0.074,2.992,0.207,4.705c0.208-0.142,0.416-0.234,0.622-0.28
		s0.4-0.089,0.584-0.128c0.412-0.092,0.907-0.129,1.487-0.111c1.212-1.035,2.615-1.8,4.211-2.295c1.594-0.494,3.188-0.941,4.78-1.34
		c0.641-0.141,1.281-0.281,1.923-0.423c0.641-0.142,1.227-0.317,1.755-0.53c0.463,0.139,0.753,0.207,0.873,0.203
		c0.119,0,0.293-0.027,0.522-0.078c0.32-0.07,0.6-0.107,0.84-0.113c0.66,0.385,1.266,0.634,1.82,0.752
		c0.554,0.119,1.126,0.209,1.716,0.271c0.543,0.072,1.079,0.159,1.604,0.259c0.526,0.1,1.058,0.283,1.597,0.549l1.13,2.848
		c0.411,0.341,0.608,0.586,0.594,0.732c0.081,0.367,0.049,0.662-0.093,0.885l0.303,0.725c-0.656,0.289-1.091,0.553-1.302,0.791
		c-0.212,0.238-0.407,0.498-0.585,0.776c-0.357,0.127-0.615,0.208-0.774,0.243c-0.161,0.035-0.31,0.068-0.446,0.098
		c-0.643,0.141-1.395,0.427-2.26,0.857c-1.326-0.141-2.654-0.064-3.981,0.228c-0.504,0.11-1.024,0.251-1.564,0.417
		c-0.539,0.166-1.078,0.334-1.618,0.499c-0.528,0.214-1.074,0.405-1.637,0.576c-0.562,0.172-1.142,0.323-1.735,0.454
		L240.341,290.047z"/>
	<path d="M270.419,279.182c0.531,1.323,0.688,2.416,0.47,3.28c-0.218,0.865-0.639,1.569-1.263,2.114
		c-0.625,0.544-1.389,0.941-2.294,1.188c-0.906,0.247-1.786,0.394-2.64,0.438c-0.6-0.541-1.188-1.251-1.765-2.131
		c-0.579-0.881-1.142-1.802-1.688-2.762c-0.548-0.959-1.059-1.914-1.53-2.866c-0.474-0.951-0.889-1.796-1.242-2.534
		c0.108-0.6,0.118-1.262,0.031-1.988c-0.088-0.725-0.201-1.455-0.339-2.192c-0.139-0.737-0.279-1.485-0.422-2.247
		c-0.144-0.76-0.246-1.494-0.305-2.201c-0.104-1.992-0.035-3.926,0.199-5.803c0.235-1.875,0.329-3.791,0.283-5.75
		c0-0.432-0.119-0.812-0.36-1.145c-0.241-0.33-0.351-0.666-0.329-1.008c0.005-0.191,0.114-0.35,0.329-0.468
		c0.213-0.119,0.317-0.298,0.313-0.538c0.026-0.533-0.029-0.952-0.169-1.258c-0.139-0.305-0.146-0.711-0.017-1.221
		c0.148-0.416,0.316-1.016,0.504-1.803c0.187-0.784,0.148-1.555-0.114-2.314c0.353-0.365,0.67-0.77,0.956-1.218
		c0.285-0.446,0.591-0.86,0.914-1.245c0.323-0.383,0.701-0.741,1.132-1.076c0.43-0.335,0.988-0.578,1.675-0.729
		c0.467,0.377,0.817,0.828,1.054,1.352c0.234,0.523,0.471,1.049,0.706,1.572c0.234,0.524,0.52,1.002,0.854,1.432
		c0.334,0.431,0.807,0.723,1.417,0.877c0.08,0.367,0.181,0.824,0.302,1.373s0.262,1.083,0.424,1.599
		c0.161,0.517,0.37,0.975,0.626,1.374c0.256,0.4,0.581,0.628,0.979,0.685c-0.34,2.378-0.629,4.723-0.865,7.03
		c-0.236,2.309-0.345,4.6-0.323,6.873c0.021,2.276,0.215,4.525,0.585,6.748C268.876,274.842,269.514,277.03,270.419,279.182z"/>
	<path d="M319.14,270.911c-2.178,0.575-4.122,0.954-5.833,1.14c-1.712,0.186-3.444,0.109-5.197-0.225
		c-0.103-0.025-0.219-0.121-0.35-0.283c-0.133-0.162-0.254-0.279-0.366-0.352c-0.305-0.077-0.649-0.061-1.033,0.047
		c-0.384,0.109-0.724,0.148-1.019,0.117c-0.407-0.102-1.057-0.332-1.95-0.688c-0.896-0.354-1.713-0.691-2.454-1.008
		c-0.965-0.459-1.885-0.928-2.758-1.41c-0.874-0.479-1.665-1.025-2.376-1.637c-0.178-0.152-0.384-0.215-0.617-0.188
		c-0.235,0.027-0.453,0.016-0.655-0.035c-1.147,1.115-2.042,2.393-2.686,3.83c-0.645,1.438-1.236,2.889-1.778,4.35
		c-0.542,1.465-1.146,2.869-1.81,4.215s-1.641,2.473-2.928,3.379c-0.412,0.092-0.794,0.104-1.144,0.036
		c-0.352-0.067-0.687-0.173-1.007-0.318c-0.319-0.146-0.638-0.28-0.952-0.403c-0.314-0.121-0.644-0.192-0.983-0.215
		c-0.12-0.549-0.334-1.03-0.641-1.443c-0.307-0.41-0.608-0.801-0.905-1.168s-0.534-0.734-0.711-1.104
		c-0.178-0.368-0.169-0.766,0.025-1.193c-0.335-0.215-0.812-0.422-1.433-0.621c0.214-0.335,0.284-0.613,0.211-0.838
		s-0.181-0.439-0.322-0.649c-0.143-0.208-0.277-0.442-0.406-0.702s-0.133-0.547-0.01-0.862c0.229-0.05,0.493-0.155,0.794-0.319
		c-0.355-0.305-0.53-0.494-0.521-0.568c0.008-0.074-0.072-0.164-0.239-0.271c-0.153-0.254-0.145-0.436,0.023-0.545
		s0.334-0.229,0.497-0.361c-0.312-2.283-0.38-4.452-0.208-6.506c0.172-2.053,0.428-4.055,0.768-6c0.34-1.947,0.662-3.913,0.97-5.9
		s0.458-4.084,0.452-6.291c0.393-0.615,0.661-1.298,0.81-2.051c0.146-0.752,0.315-1.509,0.508-2.271
		c0.192-0.762,0.432-1.521,0.722-2.283c0.288-0.758,0.776-1.43,1.465-2.014c0.65-0.094,1.26-0.049,1.83,0.138
		c0.568,0.188,1.214,0.178,1.937-0.03c0.188,0.199,0.364,0.4,0.529,0.604c0.164,0.205,0.363,0.4,0.598,0.589l0.984-0.433
		c0.594,0.301,1.153,0.718,1.679,1.25c0.524,0.533,0.933,1.127,1.221,1.783c0.289,0.656,0.408,1.314,0.362,1.973
		c-0.048,0.658-0.374,1.246-0.98,1.764c0.095,0.221,0.146,0.389,0.147,0.508s-0.01,0.23-0.035,0.331
		c-0.025,0.103-0.028,0.198-0.008,0.29s0.119,0.215,0.297,0.367c-0.766,0.888-1.241,2-1.426,3.337
		c-0.187,1.337-0.197,2.491-0.03,3.462c0.429-0.67,0.917-1.341,1.465-2.014c0.548-0.672,1.12-1.338,1.72-1.998
		c0.599-0.66,1.18-1.291,1.743-1.896c0.562-0.602,1.069-1.193,1.518-1.773c1.209-1.705,2.417-3.135,3.628-4.289
		c1.209-1.154,2.478-2.428,3.802-3.824c0.347-0.172,0.63-0.246,0.851-0.224c0.222,0.023,0.456,0.057,0.706,0.097
		c-0.061-0.274-0.177-0.416-0.347-0.428c-0.171-0.01-0.268-0.18-0.292-0.512c0.646-0.333,1.192-0.682,1.642-1.045
		c0.448-0.361,0.945-0.723,1.489-1.084c0.503,0.322,0.984,0.66,1.447,1.014c0.462,0.355,1.022,0.508,1.685,0.457
		c0.34,0.455,0.697,0.771,1.073,0.953c0.375,0.182,0.749,0.352,1.12,0.509c0.37,0.159,0.717,0.372,1.04,0.636
		c0.32,0.266,0.581,0.736,0.778,1.412c-0.113,0.361-0.231,0.747-0.357,1.158c-0.125,0.413-0.225,0.891-0.297,1.434
		c-0.734,1.025-1.501,1.963-2.297,2.809c-0.798,0.85-1.611,1.676-2.442,2.481c-0.83,0.808-1.685,1.62-2.56,2.435
		c-0.877,0.817-1.751,1.754-2.622,2.809c-0.159,0.371-0.382,0.721-0.67,1.047c-0.288,0.328-0.587,0.659-0.897,0.99
		c-0.312,0.332-0.598,0.672-0.856,1.017c-0.261,0.345-0.442,0.722-0.544,1.128c-0.128,0.075-0.26,0.129-0.396,0.158
		c-0.139,0.031-0.271,0.085-0.397,0.16c-0.066,0.35-0.229,0.651-0.486,0.898c-0.258,0.249-0.396,0.545-0.418,0.885
		c1.01,1.314,2.149,2.238,3.419,2.775s2.629,0.824,4.078,0.866c1.449,0.041,2.977-0.103,4.584-0.433
		c1.607-0.328,3.28-0.686,5.021-1.068c0.173-0.086,0.231-0.206,0.173-0.362c-0.059-0.155,0.031-0.233,0.271-0.239
		c1.18,0.125,2.139,0.453,2.881,0.986c0.74,0.533,1.594,1.028,2.559,1.488c0.291,1.762,0.082,3.318-0.627,4.674
		C321.671,268.674,320.59,269.871,319.14,270.911z"/>
	<path d="M355.047,225.07c0.115,0.312,0.181,0.549,0.192,0.714c0.012,0.167,0.022,0.319,0.029,0.462s0.029,0.294,0.064,0.453
		c0.035,0.162,0.133,0.393,0.296,0.691c-0.619,1.769-1.495,3.077-2.629,3.926c-1.133,0.85-2.403,1.562-3.812,2.135
		c-1.411,0.575-2.852,1.168-4.325,1.779c-1.474,0.612-2.864,1.543-4.173,2.791c-0.646-0.098-1.184,0.02-1.614,0.354
		c-0.431,0.336-1.114,0.559-2.05,0.668c-0.214,0.334-0.514,0.605-0.9,0.81c-0.388,0.206-0.771,0.421-1.153,0.649
		c0.272,0.372,0.446,0.779,0.52,1.218c0.072,0.441,0.208,0.782,0.406,1.026c1.632-0.215,3.4-0.627,5.307-1.238
		c1.905-0.611,3.79-1.146,5.658-1.605c0.095,0.22,0.105,0.373,0.029,0.461c-0.077,0.09-0.072,0.221,0.015,0.393
		c0.37,0.16,0.754,0.375,1.15,0.647c0.395,0.272,0.789,0.536,1.181,0.784c0.39,0.25,0.78,0.44,1.169,0.57
		c0.389,0.131,0.807,0.123,1.255-0.023c0.263,0.327,0.478,0.699,0.642,1.119s0.205,0.879,0.123,1.376
		c-0.622,0.666-1.241,1.343-1.857,2.028c-0.617,0.688-1.281,1.326-1.99,1.914c-0.711,0.589-1.484,1.107-2.322,1.555
		c-0.837,0.449-1.811,0.771-2.919,0.967c-0.229,0.051-0.401,0.088-0.515,0.113c-0.115,0.025-0.279-0.012-0.492-0.108
		c-0.316,0.312-0.816,0.493-1.5,0.546c-0.684,0.055-1.184,0.236-1.499,0.547c-0.556-0.119-1.185-0.088-1.888,0.09
		c-0.706,0.182-1.352,0.238-1.942,0.176c-0.521,1.123-0.958,2.299-1.312,3.527c-0.354,1.23-0.623,2.514-0.809,3.851
		c1.606-0.112,2.921-0.307,3.94-0.579c1.021-0.271,1.974-0.566,2.865-0.883c0.891-0.314,1.805-0.637,2.74-0.962
		c0.937-0.325,2.142-0.626,3.617-0.903c0.804-0.705,1.818-1.275,3.042-1.714c1.224-0.438,2.321-0.954,3.295-1.553
		c0.396,0.058,0.77,0.227,1.119,0.509c0.351,0.283,0.684,0.547,1.002,0.789c0.316,0.242,0.639,0.447,0.963,0.615
		c0.326,0.17,0.689,0.186,1.091,0.049c0.223,0.143,0.397,0.333,0.521,0.568c0.124,0.236,0.233,0.465,0.33,0.684
		c0.095,0.22,0.22,0.396,0.369,0.531c0.148,0.136,0.356,0.148,0.621,0.043c-0.354,1.662-0.89,2.992-1.606,3.988
		c-0.717,0.998-1.603,1.829-2.655,2.492c-1.055,0.664-2.255,1.264-3.6,1.801c-1.347,0.537-2.831,1.151-4.454,1.844
		c-0.392,0.182-0.738,0.244-1.038,0.191c-0.299-0.054-0.633-0.041-0.999,0.04c-1.003,0.461-2.216,0.944-3.641,1.449
		c-1.426,0.505-2.897,0.9-4.418,1.188c-1.521,0.286-3.006,0.408-4.455,0.367s-2.705-0.4-3.765-1.08
		c-0.438-0.238-0.761-0.562-0.971-0.974c-0.21-0.409-0.592-0.673-1.146-0.792c-0.178-0.584-0.415-1.229-0.713-1.932
		c-0.299-0.701-0.605-1.438-0.918-2.209c-0.313-0.77-0.591-1.537-0.831-2.301c-0.239-0.764-0.361-1.479-0.365-2.152
		c-0.013-0.717,0.136-1.396,0.45-2.043c0.314-0.645,0.333-1.271,0.054-1.883c0.219-0.096,0.328-0.252,0.329-0.469
		c0-0.216,0.166-0.336,0.497-0.361c0.093-0.885,0.219-1.729,0.379-2.531c0.158-0.801,0.335-1.585,0.527-2.348
		c0.192-0.762,0.382-1.535,0.569-2.32c0.187-0.785,0.345-1.648,0.475-2.588c-0.772-0.453-1.385-1.003-1.839-1.648
		c-0.454-0.643-0.826-1.305-1.12-1.984s-0.569-1.387-0.827-2.123c-0.259-0.734-0.587-1.465-0.986-2.193
		c0.306-0.788,0.743-1.471,1.312-2.053c0.567-0.581,1.211-1.095,1.93-1.541c0.717-0.445,1.514-0.859,2.39-1.246
		c0.875-0.383,1.791-0.801,2.748-1.252c1.699-0.997,3.236-1.814,4.607-2.453c1.372-0.637,2.732-1.213,4.084-1.727
		c1.351-0.514,2.762-1.027,4.232-1.543c1.471-0.515,3.127-1.167,4.969-1.957c0.503,0.321,0.937,0.441,1.304,0.361
		c0.092-0.453,0.282-0.626,0.569-0.521c0.286,0.105,0.36-0.043,0.226-0.445c0.628,0.678,1.355,1.203,2.182,1.571
		C353.208,224.623,354.096,224.896,355.047,225.07z"/>
	<path d="M422.988,244.609c-0.104,0.839-0.331,1.717-0.681,2.633c-0.351,0.917-0.812,1.763-1.386,2.537
		c-0.575,0.773-1.251,1.463-2.029,2.066c-0.779,0.604-1.645,1.033-2.596,1.291c-0.626-0.008-1.059-0.068-1.3-0.183
		c-0.241-0.116-0.491-0.216-0.751-0.303c-0.157-0.062-0.302-0.113-0.43-0.157c-0.13-0.043-0.246-0.078-0.348-0.104l-0.899-0.162
		l0.079-0.953c0.01-0.387-0.076-0.668-0.258-0.844c-0.183-0.176-0.521-0.4-1.014-0.677c-0.167-0.106-0.335-0.214-0.503-0.321
		c-0.167-0.107-0.312-0.219-0.434-0.337l-1.454-1.048l1.748-0.889c1.073-0.57,1.751-1.151,2.028-1.742
		c0.278-0.588,0.241-1.468-0.112-2.639c-0.957,0.02-1.728,0.164-2.315,0.438s-1.182,0.573-1.783,0.896
		c-0.772,0.41-1.565,0.788-2.378,1.135c-0.812,0.348-1.722,0.631-2.729,0.852c-0.367,0.082-0.712,0.146-1.037,0.193
		s-0.677,0.088-1.053,0.123l-0.717,0.014c-0.203-0.483-0.356-0.75-0.464-0.798s-0.216-0.107-0.327-0.18
		c-0.28-0.179-0.589-0.435-0.925-0.769c-0.338-0.332-0.503-0.813-0.496-1.439c-0.321-0.361-0.549-0.742-0.685-1.145
		c-0.154,0.609-0.234,1.229-0.24,1.854l-0.124,0.746l-0.656,0.289c-0.082,0.065-0.128,0.184-0.138,0.354
		c-0.011,0.172-0.006,0.301,0.015,0.393l-0.087,1.244c-0.072,0.112-0.146,0.211-0.222,0.301c-0.078,0.088-0.15,0.188-0.222,0.301
		c-0.002,0.432-0.025,0.869-0.072,1.311c-0.046,0.442-0.098,0.861-0.154,1.258c-0.1,0.646-0.164,1.272-0.199,1.88
		c-0.034,0.608,0.032,1.181,0.199,1.72l-0.108,0.816c-0.17,0.326-0.373,0.598-0.612,0.818c-0.239,0.222-0.481,0.43-0.726,0.627
		c-0.072,0.113-0.18,0.221-0.325,0.324c-0.146,0.104-0.258,0.189-0.34,0.255l-0.04,0.801l-0.793,0.318
		c-0.485,0.202-0.823,0.349-1.02,0.44c-0.196,0.09-0.431,0.167-0.706,0.227l-0.701,0.083c-0.596-0.302-1.058-0.548-1.387-0.739
		c-0.33-0.189-0.703-0.359-1.12-0.51c-0.533-0.458-0.853-0.82-0.959-1.084c-0.105-0.266-0.207-0.506-0.304-0.726
		c-0.151-0.255-0.258-0.471-0.322-0.649c-0.063-0.177-0.149-0.302-0.263-0.373l-1.073-0.629l0.619-0.783l-0.188-1.184
		c0.403-2.535,0.882-4.992,1.438-7.371c0.557-2.378,1.137-4.811,1.742-7.295c0.205-0.812,0.399-1.623,0.581-2.432
		c0.183-0.807,0.375-1.619,0.581-2.432c-0.076-0.127-0.135-0.282-0.175-0.465s-0.04-0.398,0.001-0.648
		c0.333-0.889,0.592-1.678,0.776-2.367c0.183-0.688,0.366-1.387,0.546-2.1c0.195-0.858,0.406-1.697,0.634-2.516
		c0.228-0.816,0.555-1.68,0.979-2.59l0.992-0.723c0.128-0.076,0.275-0.169,0.443-0.277c0.167-0.109,0.366-0.189,0.595-0.24
		l1.061-0.088c1.15-0.877,2.089-1.959,2.813-3.248c0.726-1.285,1.425-2.797,2.1-4.529l0.476-1.111l1.014,0.353
		c0.259,0.087,0.607,0.144,1.044,0.166c0.438,0.024,0.899,0.054,1.388,0.091c0.865,0.002,1.688,0.037,2.471,0.104
		c0.782,0.07,1.454,0.281,2.012,0.639c0.437,0.672,0.718,1.186,0.844,1.541c0.125,0.357,0.274,0.709,0.448,1.054
		c0.309,0.749,0.605,1.499,0.891,2.252c0.285,0.755,0.558,1.604,0.814,2.557c0.4,0.729,0.763,1.452,1.09,2.172
		s0.645,1.455,0.952,2.202c0.471,1.049,0.933,2.062,1.39,3.043c0.455,0.979,0.966,1.887,1.534,2.721
		c0.367-0.08,0.6-0.105,0.702-0.082c0.209-0.142,0.435-0.264,0.676-0.364s0.518-0.21,0.828-0.326l0.74-0.235l0.426,0.627
		c0.096,0.22,0.376,0.396,0.838,0.535c0.604-0.084,1.068-0.055,1.388,0.091c0.32,0.146,0.619,0.308,0.898,0.485
		c0.224,0.145,0.438,0.24,0.641,0.292l1.121,0.186l-0.323,1.151c-0.276,0.924-0.755,1.857-1.436,2.799
		c-0.683,0.942-1.492,1.781-2.435,2.516c0.105,0.266,0.198,0.521,0.276,0.768s0.193,0.497,0.346,0.752
		c0.309,0.748,0.599,1.523,0.872,2.328c0.273,0.803,0.46,1.65,0.559,2.54L422.988,244.609z M400.529,237.095
		c1.353-0.394,2.577-0.771,3.674-1.132s2.302-0.83,3.614-1.407c-0.622-1.304-1.28-2.658-1.974-4.065
		c-0.695-1.406-1.408-2.797-2.143-4.172l-0.261,0.777c-0.705,1.162-1.349,2.432-1.934,3.809c-0.586,1.378-1.061,2.656-1.423,3.84
		c-0.185,0.473-0.368,0.945-0.553,1.418c-0.184,0.473-0.345,0.939-0.482,1.402c0.265-0.105,0.522-0.188,0.773-0.242
		C400.074,237.268,400.309,237.191,400.529,237.095z"/>
	<path d="M256.591,335.619c-1.191,0.693-2.497,1.414-3.917,2.158s-2.886,1.281-4.396,1.614c-2.289,0.504-4.224,0.329-5.803-0.522
		c-0.341-0.453-0.621-0.752-0.845-0.895c-0.177-0.152-0.347-0.32-0.506-0.501c-0.16-0.181-0.303-0.448-0.429-0.806
		c-0.69-0.52-1.29-1.167-1.796-1.944c-0.508-0.776-0.917-1.599-1.227-2.466c-0.312-0.867-0.532-1.766-0.665-2.697
		s-0.177-1.834-0.128-2.708c0.051-0.202,0.067-0.399,0.051-0.587c-0.018-0.188-0.028-0.4-0.033-0.641
		c0.021-0.771,0.061-1.525,0.115-2.258c0.056-0.732,0.21-1.389,0.466-1.975c-0.274-0.371-0.375-0.828-0.302-1.373
		c0.071-0.543,0.177-1.047,0.315-1.509c0.258-1.88,0.471-3.476,0.64-4.784c0.167-1.309,0.35-2.607,0.546-3.9
		c0.324-2.23,0.609-4.428,0.853-6.594c0.244-2.166,0.384-4.477,0.419-6.933c0.315-0.31,0.555-0.528,0.719-0.661
		c0.254-0.152,0.468-0.271,0.642-0.357c0.914,0.23,1.964,0.42,3.147,0.566c1.185,0.148,2.143,0.141,2.876-0.02
		c0.416,0.148,0.683,0.271,0.8,0.363c0.116,0.095,0.229,0.178,0.343,0.248c0.634,0.484,1.202,0.996,1.705,1.533
		c0.502,0.538,0.796,1.326,0.88,2.363c-0.185,0.471-0.346,0.723-0.482,0.753c-0.028,0.968-0.098,1.798-0.207,2.493
		c-0.111,0.697-0.233,1.396-0.367,2.098c-0.17,0.756-0.316,1.508-0.439,2.256c-0.124,0.747-0.167,1.646-0.127,2.691
		c-0.134,0.271-0.214,0.504-0.242,0.701c-0.029,0.199-0.064,0.422-0.104,0.672c-0.042,0.25-0.093,0.513-0.15,0.788
		c-0.06,0.277-0.184,0.533-0.372,0.767c0.125,1.221,0.119,2.23-0.018,3.027c-0.137,0.798-0.285,1.6-0.443,2.401
		c-0.257,1.449-0.458,2.884-0.601,4.308c-0.144,1.424-0.073,2.992,0.208,4.705c0.208-0.141,0.416-0.234,0.622-0.28
		s0.399-0.088,0.583-0.128c0.412-0.092,0.908-0.128,1.487-0.111c1.213-1.033,2.616-1.8,4.212-2.295
		c1.594-0.494,3.187-0.941,4.78-1.34c0.641-0.141,1.281-0.281,1.923-0.423c0.641-0.142,1.227-0.316,1.755-0.53
		c0.463,0.14,0.753,0.207,0.873,0.205c0.119-0.002,0.293-0.029,0.522-0.08c0.32-0.07,0.6-0.106,0.839-0.111
		c0.661,0.383,1.267,0.633,1.821,0.75c0.554,0.119,1.126,0.209,1.716,0.271c0.543,0.072,1.078,0.158,1.604,0.258
		c0.526,0.102,1.058,0.283,1.597,0.549l1.13,2.848c0.41,0.342,0.608,0.586,0.594,0.732c0.081,0.367,0.049,0.662-0.094,0.885
		l0.304,0.727c-0.656,0.287-1.091,0.553-1.302,0.789c-0.212,0.238-0.407,0.498-0.585,0.777c-0.357,0.126-0.615,0.207-0.774,0.242
		c-0.161,0.035-0.31,0.068-0.446,0.098c-0.643,0.142-1.396,0.428-2.26,0.857c-1.326-0.141-2.654-0.064-3.981,0.229
		c-0.505,0.111-1.024,0.25-1.564,0.416c-0.539,0.166-1.078,0.334-1.617,0.5c-0.529,0.213-1.076,0.405-1.638,0.576
		c-0.563,0.172-1.142,0.322-1.735,0.453L256.591,335.619z"/>
	<path d="M310.604,302.93c0.075,0.56,0.237,1.076,0.485,1.549c0.248,0.475,0.528,0.928,0.84,1.363s0.614,0.885,0.908,1.348
		c0.293,0.465,0.541,0.938,0.744,1.421c0.232,0.622,0.386,1.319,0.461,2.095c0.074,0.775,0.075,1.543,0.003,2.303
		c-0.073,0.762-0.229,1.467-0.47,2.119c-0.241,0.654-0.583,1.172-1.025,1.558c-0.461,0.966-1.098,1.778-1.912,2.437
		c-0.815,0.659-1.541,1.395-2.178,2.207c-0.435,0.432-0.943,0.783-1.531,1.057s-1.188,0.549-1.798,0.828
		c-0.444,0.385-0.976,0.802-1.597,1.25c-0.621,0.45-1.271,0.881-1.947,1.293c-0.678,0.413-1.37,0.758-2.077,1.033
		s-1.341,0.451-1.899,0.525c-1.264,0.807-2.529,1.432-3.799,1.88c-1.27,0.447-2.814,0.679-4.634,0.696
		c-1.599,0.591-3.136,0.857-4.612,0.798c-1.478-0.06-2.843-0.371-4.094-0.935c-1.252-0.564-2.402-1.318-3.449-2.266
		c-1.049-0.945-1.961-1.98-2.735-3.105c-0.941-2.529-1.37-4.918-1.289-7.168s0.438-4.391,1.069-6.427
		c0.633-2.035,1.443-3.964,2.435-5.792c0.989-1.824,1.942-3.605,2.855-5.343c0.295,0.032,0.509-0.028,0.646-0.179
		c0.135-0.148,0.248-0.342,0.34-0.578s0.197-0.464,0.318-0.682c0.119-0.218,0.288-0.376,0.508-0.473
		c0.169-0.756,0.525-1.375,1.067-1.854c0.543-0.479,0.926-1.079,1.152-1.802c0.392-0.182,0.705-0.395,0.939-0.639
		c0.234-0.242,0.452-0.506,0.653-0.791c0.201-0.284,0.417-0.56,0.646-0.826c0.229-0.266,0.517-0.484,0.863-0.658l-0.166-0.756
		c0.743-0.547,1.256-1.104,1.54-1.67c0.282-0.566,0.624-1.253,1.022-2.061c0.402-0.135,0.729-0.232,0.98-0.287
		c0.251-0.057,0.619-0.184,1.104-0.387c0.225-0.723,0.45-1.275,0.678-1.662c0.228-0.385,0.598-0.826,1.112-1.324
		c0.61,0.154,1.257,0.203,1.94,0.148c0.684-0.053,1.332,0.115,1.948,0.508c0.146,0.448,0.361,0.773,0.646,0.975
		s0.587,0.374,0.906,0.52c0.32,0.146,0.631,0.306,0.934,0.479c0.302,0.175,0.544,0.457,0.727,0.848
		c0.192,0.006,0.314-0.043,0.363-0.15c0.048-0.107,0.168-0.156,0.361-0.152c0.279,0.611,0.532,0.999,0.761,1.164
		c0.228,0.166,0.5,0.527,0.813,1.082c-0.129,0.508-0.197,1.015-0.205,1.521c-0.009,0.506-0.218,0.924-0.624,1.253
		c0.024,0.33,0.153,0.482,0.388,0.455s0.398,0.068,0.496,0.287c0.135,0.402,0.132,0.715-0.01,0.938
		c1.491,1.544,2.891,3.216,4.198,5.016C307.713,299.715,309.113,301.387,310.604,302.93z M303.456,311.342
		c0.071-0.543,0.222-1.008,0.449-1.395c0.227-0.385,0.293-0.903,0.197-1.555c-0.31-0.316-0.511-0.572-0.601-0.768
		c-0.091-0.197-0.187-0.523-0.287-0.98c-1.32-1.197-2.525-2.529-3.614-3.994c-1.09-1.463-2.249-2.804-3.477-4.021
		c-0.053,0.203-0.172,0.422-0.36,0.654c-0.189,0.234-0.45,0.243-0.785,0.029c-0.012,0.387-0.114,0.686-0.307,0.895
		c-0.195,0.213-0.431,0.336-0.711,0.373c-0.279,0.037-0.581,0.032-0.903-0.018c-0.323-0.047-0.619-0.139-0.888-0.272
		c-1.097,1.347-2.197,2.669-3.303,3.967c-1.107,1.3-2.041,2.728-2.801,4.288c-0.163,0.133-0.271,0.191-0.32,0.178
		c-0.052-0.013-0.182,0.053-0.39,0.193c-0.176,0.951-0.448,1.84-0.818,2.664c-0.37,0.826-0.727,1.661-1.069,2.504
		s-0.606,1.717-0.791,2.621c-0.186,0.904-0.18,1.912,0.017,3.02c0.919,0.471,1.92,0.658,3.004,0.563
		c1.083-0.095,2.175-0.31,3.277-0.648c1.101-0.339,2.167-0.729,3.197-1.171c1.03-0.443,2.003-0.766,2.919-0.967
		c1.822-0.881,3.337-1.85,4.545-2.908C300.844,313.537,302.117,312.453,303.456,311.342z"/>
	<path d="M347.486,316.558c-0.723,0.206-1.632,0.384-2.727,0.528c-1.097,0.145-2.057,0.524-2.882,1.138
		c-2.448,0.442-4.985,0.688-7.612,0.739c-2.63,0.051-5.078-0.059-7.344-0.328c-0.569-0.403-1.131-0.771-1.684-1.105
		c-0.554-0.334-1.24-0.508-2.058-0.52c-1.29-0.627-2.417-1.495-3.381-2.604s-1.808-2.326-2.532-3.655
		c-0.724-1.327-1.318-2.722-1.783-4.179c-0.464-1.457-0.824-2.879-1.081-4.262c0.233-2.211,0.814-4.199,1.748-5.965
		c0.931-1.764,1.899-3.523,2.905-5.282c0.533-0.405,0.917-0.788,1.149-1.153c0.231-0.363,0.493-0.707,0.78-1.035
		c0.288-0.326,0.576-0.654,0.864-0.982c0.288-0.326,0.528-0.703,0.723-1.131c0.911-0.439,1.673-0.955,2.288-1.547
		c0.613-0.591,1.211-1.203,1.792-1.834c0.581-0.632,1.191-1.234,1.834-1.808c0.642-0.573,1.419-1.079,2.329-1.521
		c0.275-0.492,0.637-0.92,1.086-1.283c0.447-0.361,0.907-0.727,1.379-1.095c0.471-0.366,0.917-0.741,1.337-1.122
		c0.421-0.381,0.718-0.83,0.892-1.348c0.31,0.316,0.657,0.371,1.045,0.166c0.386-0.204,0.746-0.416,1.083-0.635
		c0.219-0.095,0.423-0.092,0.614,0.01c0.19,0.102,0.37,0.205,0.537,0.313c0.168,0.106,0.311,0.159,0.431,0.157
		c0.119-0.002,0.199-0.127,0.241-0.377c0.229-0.051,0.322,0.049,0.281,0.297c-0.042,0.251-0.075,0.426-0.101,0.527
		c0.356-0.125,0.683-0.115,0.98,0.035c0.296,0.152,0.726,0.19,1.284,0.113c0.233,0.19,0.317,0.352,0.251,0.485
		c-0.067,0.136-0.069,0.339-0.009,0.614c1.464,0.109,2.477,0.571,3.04,1.383c0.562,0.812,0.788,1.734,0.681,2.766
		c-0.109,1.032-0.484,2.051-1.128,3.057c-0.643,1.005-1.414,1.75-2.315,2.237c-2.066,1.078-3.995,2.187-5.783,3.324
		c-1.791,1.139-3.152,2.528-4.086,4.175c-1.028,0.562-1.908,1.199-2.639,1.912c-0.732,0.713-1.401,1.484-2.011,2.314
		c-0.609,0.829-1.169,1.672-1.676,2.527c-0.508,0.857-1.054,1.708-1.634,2.557c0.187,0.631,0.191,1.145,0.016,1.543
		s-0.339,0.807-0.486,1.224c0.242,0.667,0.535,1.239,0.881,1.714c0.345,0.477,0.71,0.936,1.096,1.379
		c3.223,0.252,6.563,0.115,10.025-0.406c3.46-0.52,6.914-1.136,10.356-1.846c0.421,0.387,0.892,0.729,1.413,1.021
		c0.52,0.293,1.011,0.617,1.474,0.971c0.462,0.355,0.864,0.771,1.21,1.246c0.344,0.477,0.534,1.119,0.568,1.927
		c-0.491,0.827-1.062,1.613-1.714,2.356C348.783,315.037,348.134,315.793,347.486,316.558z"/>
	<path d="M389.997,301.014c-0.103,0.84-0.331,1.719-0.681,2.635s-0.812,1.762-1.386,2.535c-0.574,0.775-1.251,1.464-2.028,2.067
		c-0.779,0.603-1.646,1.033-2.597,1.29c-0.625-0.006-1.059-0.066-1.3-0.182s-0.491-0.215-0.75-0.303
		c-0.158-0.061-0.303-0.113-0.431-0.157c-0.13-0.044-0.245-0.077-0.347-0.104l-0.9-0.161l0.079-0.954
		c0.011-0.386-0.075-0.667-0.258-0.843s-0.521-0.4-1.013-0.678c-0.168-0.107-0.335-0.214-0.503-0.32
		c-0.168-0.107-0.312-0.221-0.434-0.338l-1.454-1.047l1.748-0.889c1.073-0.571,1.75-1.152,2.028-1.742
		c0.277-0.59,0.241-1.469-0.113-2.64c-0.956,0.02-1.728,0.164-2.315,0.438c-0.588,0.272-1.182,0.572-1.782,0.895
		c-0.773,0.412-1.566,0.789-2.378,1.137c-0.812,0.348-1.723,0.631-2.729,0.852c-0.367,0.08-0.713,0.146-1.037,0.192
		c-0.326,0.048-0.677,0.089-1.053,0.124l-0.718,0.014c-0.202-0.484-0.356-0.75-0.463-0.799c-0.108-0.048-0.216-0.107-0.328-0.18
		c-0.28-0.178-0.588-0.435-0.925-0.768c-0.337-0.334-0.502-0.814-0.496-1.439c-0.32-0.361-0.549-0.743-0.684-1.146
		c-0.154,0.61-0.234,1.228-0.241,1.853l-0.123,0.748l-0.657,0.287c-0.082,0.066-0.128,0.186-0.138,0.355
		c-0.011,0.171-0.006,0.301,0.015,0.393l-0.086,1.242c-0.073,0.113-0.146,0.213-0.223,0.301c-0.077,0.09-0.15,0.189-0.222,0.301
		c-0.002,0.433-0.024,0.869-0.071,1.312c-0.047,0.441-0.099,0.861-0.155,1.258c-0.099,0.646-0.165,1.271-0.198,1.879
		c-0.035,0.609,0.031,1.182,0.198,1.721l-0.108,0.816c-0.17,0.324-0.372,0.598-0.612,0.818c-0.239,0.221-0.481,0.43-0.726,0.627
		c-0.072,0.113-0.18,0.22-0.324,0.324c-0.146,0.104-0.259,0.189-0.341,0.254l-0.04,0.801l-0.793,0.318
		c-0.484,0.203-0.823,0.35-1.02,0.441c-0.196,0.09-0.431,0.166-0.706,0.227l-0.701,0.082c-0.595-0.301-1.057-0.547-1.387-0.738
		c-0.329-0.191-0.704-0.36-1.12-0.51c-0.533-0.459-0.852-0.82-0.958-1.086c-0.105-0.264-0.207-0.504-0.304-0.725
		c-0.152-0.254-0.259-0.471-0.323-0.648c-0.062-0.178-0.149-0.303-0.263-0.375l-1.073-0.627l0.619-0.784l-0.188-1.183
		c0.403-2.537,0.882-4.992,1.438-7.371s1.138-4.811,1.742-7.295c0.205-0.812,0.399-1.625,0.581-2.432
		c0.183-0.808,0.375-1.619,0.581-2.432c-0.076-0.127-0.134-0.283-0.175-0.466c-0.039-0.183-0.04-0.397,0.002-0.648
		c0.332-0.89,0.591-1.678,0.775-2.366c0.184-0.688,0.366-1.388,0.546-2.1c0.194-0.859,0.406-1.697,0.635-2.516
		c0.228-0.816,0.554-1.681,0.978-2.592l0.993-0.723c0.128-0.074,0.274-0.168,0.442-0.276s0.366-0.188,0.596-0.239l1.061-0.09
		c1.149-0.875,2.088-1.959,2.813-3.246c0.725-1.286,1.424-2.797,2.1-4.529l0.475-1.113l1.014,0.354
		c0.259,0.087,0.607,0.144,1.044,0.166c0.438,0.023,0.9,0.055,1.389,0.091c0.864,0.002,1.688,0.036,2.471,0.104
		c0.781,0.068,1.453,0.281,2.012,0.637c0.436,0.673,0.717,1.188,0.844,1.543c0.125,0.357,0.273,0.707,0.447,1.053
		c0.309,0.75,0.605,1.5,0.891,2.252c0.285,0.754,0.558,1.605,0.815,2.557c0.399,0.729,0.762,1.453,1.09,2.172
		c0.326,0.721,0.644,1.455,0.952,2.203c0.471,1.049,0.933,2.062,1.389,3.041c0.456,0.98,0.967,1.889,1.535,2.723
		c0.366-0.08,0.6-0.107,0.702-0.082c0.208-0.143,0.434-0.264,0.676-0.365c0.24-0.1,0.518-0.209,0.828-0.326l0.74-0.234l0.425,0.626
		c0.096,0.22,0.376,0.397,0.839,0.536c0.604-0.086,1.067-0.055,1.388,0.09c0.319,0.146,0.618,0.309,0.898,0.486
		c0.223,0.143,0.438,0.24,0.641,0.291l1.12,0.186l-0.323,1.15c-0.275,0.926-0.754,1.859-1.436,2.801s-1.492,1.779-2.434,2.516
		c0.105,0.264,0.197,0.521,0.276,0.767c0.078,0.247,0.192,0.497,0.345,0.751c0.31,0.75,0.599,1.525,0.872,2.329
		s0.46,1.651,0.56,2.54L389.997,301.014z M367.538,293.5c1.354-0.393,2.577-0.771,3.675-1.132c1.097-0.36,2.301-0.831,3.614-1.407
		c-0.623-1.303-1.281-2.658-1.975-4.064c-0.694-1.407-1.407-2.798-2.142-4.173l-0.262,0.776c-0.705,1.164-1.348,2.434-1.934,3.811
		c-0.585,1.377-1.06,2.656-1.423,3.84c-0.184,0.473-0.368,0.945-0.552,1.418c-0.184,0.472-0.346,0.939-0.483,1.402
		c0.265-0.105,0.522-0.188,0.774-0.243C367.083,293.672,367.318,293.597,367.538,293.5z"/>
	<path d="M413.634,301.07c-1.19,0.693-2.496,1.412-3.916,2.157c-1.42,0.743-2.886,1.282-4.396,1.614
		c-2.29,0.504-4.224,0.328-5.803-0.523c-0.341-0.452-0.622-0.75-0.845-0.893c-0.178-0.152-0.348-0.32-0.506-0.502
		c-0.16-0.18-0.304-0.447-0.43-0.805c-0.689-0.52-1.289-1.168-1.795-1.945c-0.508-0.776-0.917-1.598-1.227-2.465
		c-0.312-0.869-0.533-1.766-0.666-2.698c-0.133-0.931-0.176-1.833-0.128-2.708c0.052-0.201,0.067-0.398,0.052-0.586
		c-0.018-0.188-0.028-0.402-0.033-0.642c0.021-0.771,0.061-1.524,0.115-2.257s0.209-1.389,0.466-1.975
		c-0.274-0.371-0.375-0.828-0.303-1.373c0.071-0.544,0.177-1.047,0.316-1.51c0.258-1.881,0.47-3.475,0.64-4.783
		c0.167-1.309,0.35-2.608,0.545-3.9c0.325-2.231,0.609-4.429,0.854-6.596c0.243-2.165,0.383-4.475,0.419-6.932
		c0.315-0.309,0.555-0.529,0.718-0.661c0.255-0.152,0.469-0.271,0.642-0.357c0.915,0.231,1.964,0.421,3.148,0.567
		c1.185,0.147,2.143,0.141,2.875-0.021c0.417,0.15,0.683,0.271,0.8,0.365s0.23,0.178,0.344,0.248
		c0.634,0.484,1.201,0.996,1.705,1.533c0.502,0.537,0.795,1.326,0.879,2.361c-0.184,0.473-0.345,0.725-0.482,0.754
		c-0.027,0.967-0.098,1.798-0.207,2.494c-0.11,0.697-0.232,1.395-0.367,2.096c-0.169,0.758-0.315,1.51-0.438,2.258
		c-0.124,0.746-0.167,1.645-0.128,2.691c-0.133,0.27-0.213,0.504-0.242,0.701c-0.027,0.197-0.063,0.422-0.104,0.671
		c-0.043,0.25-0.093,0.513-0.151,0.788c-0.059,0.277-0.183,0.533-0.371,0.767c0.125,1.222,0.119,2.23-0.018,3.027
		c-0.138,0.798-0.285,1.599-0.443,2.401c-0.258,1.449-0.458,2.885-0.601,4.308c-0.144,1.425-0.074,2.993,0.207,4.706
		c0.209-0.143,0.416-0.236,0.623-0.281c0.205-0.045,0.4-0.088,0.583-0.128c0.412-0.091,0.907-0.128,1.487-0.111
		c1.213-1.034,2.616-1.8,4.211-2.294c1.594-0.494,3.188-0.941,4.781-1.34c0.641-0.142,1.28-0.282,1.923-0.424
		c0.641-0.141,1.226-0.316,1.755-0.529c0.462,0.139,0.753,0.206,0.873,0.203c0.118,0,0.293-0.027,0.521-0.078
		c0.32-0.07,0.6-0.107,0.84-0.113c0.66,0.385,1.266,0.634,1.821,0.752c0.554,0.119,1.126,0.209,1.715,0.271
		c0.544,0.072,1.079,0.158,1.605,0.259c0.525,0.1,1.058,0.283,1.597,0.549l1.13,2.847c0.41,0.342,0.608,0.587,0.593,0.733
		c0.081,0.367,0.049,0.662-0.093,0.885l0.304,0.725c-0.656,0.289-1.092,0.553-1.303,0.791s-0.406,0.497-0.585,0.776
		c-0.356,0.126-0.614,0.207-0.774,0.242c-0.161,0.036-0.309,0.067-0.446,0.099c-0.642,0.141-1.394,0.427-2.259,0.857
		c-1.327-0.141-2.654-0.064-3.981,0.228c-0.505,0.11-1.025,0.251-1.564,0.415c-0.539,0.168-1.078,0.336-1.618,0.501
		c-0.529,0.214-1.074,0.405-1.637,0.576c-0.563,0.171-1.142,0.323-1.736,0.454L413.634,301.07z"/>
</g>
</svg>
